<svg width="22" height="21" viewBox="0 0 22 21" fill="none" xmlns="http://www.w3.org/2000/svg">
<path d="M10.3274 0.862741C10.6026 0.305306 11.3974 0.305305 11.6726 0.862739L14.3522 6.29232C14.4615 6.51367 14.6726 6.6671 14.9169 6.7026L20.9088 7.57327C21.524 7.66266 21.7696 8.41864 21.3245 8.85254L16.9887 13.0789C16.8119 13.2512 16.7313 13.4994 16.773 13.7427L17.7965 19.7104C17.9016 20.3231 17.2585 20.7903 16.7083 20.501L11.349 17.6835C11.1305 17.5686 10.8695 17.5686 10.651 17.6835L5.29168 20.501C4.74146 20.7903 4.09839 20.3231 4.20347 19.7104L5.22701 13.7427C5.26874 13.4994 5.18807 13.2512 5.01131 13.0789L0.675535 8.85254C0.230397 8.41864 0.476029 7.66266 1.09119 7.57327L7.08309 6.7026C7.32737 6.6671 7.53854 6.51367 7.64779 6.29232L10.3274 0.862741Z" fill="#EFBF14"/>
</svg>
